<svg width="147" height="124" viewBox="0 0 147 124" fill="none" xmlns="http://www.w3.org/2000/svg">
<path d="M123.78 122.359V19.846H113.758V1.49219H146.95V19.846H137.089V122.359H123.78Z" fill="#EB2311"/>
<path d="M97.2516 124C93.2429 124 89.9023 122.657 87.2298 119.971C84.5573 117.186 82.5263 113.057 81.1366 107.586C79.8003 102.015 79.0253 94.9523 78.8115 86.3971L90.1963 82.8159C90.3032 87.7898 90.5704 91.9679 90.998 95.3502C91.479 98.633 92.1739 101.12 93.0825 102.811C94.0446 104.403 95.2205 105.199 96.6102 105.199C98.3206 105.199 99.4697 104.204 100.058 102.214C100.699 100.225 101.02 97.9366 101.02 95.3502C101.02 90.2768 100.352 86.0489 99.0154 82.6667C97.7326 79.1849 96.0222 75.7032 93.8843 72.2214L87.1496 61.3285C84.7444 57.5483 82.7668 53.2708 81.2167 48.4958C79.7202 43.7208 78.9719 37.8516 78.9719 30.8881C78.9719 20.9402 80.5219 13.3301 83.622 8.05776C86.7755 2.68592 91.0782 0 96.53 0C99.7904 0 102.463 0.994788 104.547 2.98436C106.632 4.97393 108.235 7.65985 109.358 11.0421C110.534 14.3249 111.336 17.9559 111.763 21.935C112.244 25.8147 112.538 29.6943 112.645 33.574L101.34 36.7076C101.234 33.0269 101.046 29.7938 100.779 27.0084C100.565 24.223 100.084 22.0345 99.3361 20.4428C98.6413 18.8512 97.5723 18.0554 96.1291 18.0554C94.5791 18.0554 93.43 19.1496 92.6817 21.3381C91.9334 23.4272 91.5592 25.7649 91.5592 28.3514C91.5592 32.629 92.067 36.1605 93.0825 38.9459C94.1515 41.6318 95.5947 44.4669 97.4119 47.4513L103.986 58.1949C106.712 62.572 109.037 67.5957 110.961 73.2659C112.939 78.8367 113.928 85.7505 113.928 94.0072C113.928 99.6775 113.233 104.801 111.843 109.377C110.454 113.953 108.503 117.534 105.991 120.12C103.532 122.707 100.619 124 97.2516 124Z" fill="#EB2311"/>
<path d="M37.8232 122.359L50.4106 1.49219H65.0825L77.5896 122.359H65.323L62.9979 95.7979H52.7356L50.2502 122.359H37.8232ZM53.9383 80.7269H61.7152L57.7866 31.9326L53.9383 80.7269Z" fill="#EB2311"/>
<path d="M0 122.359V1.49219H13.2287V52.5247L24.9342 1.49219H37.762L25.5756 55.8075L38.644 122.359H25.335L15.3133 68.1926L13.2287 75.0566V122.359H0Z" fill="#EB2311"/>
</svg>
