<svg width="71" height="44" viewBox="0 0 71 44" fill="none" xmlns="http://www.w3.org/2000/svg">
<path d="M58.358 43.2152V7.58065H53.4717V0.580078H70.4137V7.58065H65.5674V43.2152H58.358Z" fill="#212121"/>
<path d="M46.6759 43.8457C44.6466 43.8457 42.951 43.372 41.5893 42.4245C40.2275 41.4771 39.1995 40.0208 38.5053 38.0558C37.811 36.0556 37.4239 33.4764 37.3438 30.3183L43.4717 29.1076C43.4984 30.9324 43.6186 32.4062 43.8322 33.5291C44.0725 34.652 44.3929 35.459 44.7934 35.9503C45.2207 36.4416 45.728 36.6872 46.3154 36.6872C47.0631 36.6872 47.5437 36.3539 47.7573 35.6871C47.9976 35.0204 48.1178 34.3186 48.1178 33.5817C48.1178 31.8272 47.7973 30.3534 47.1565 29.1603C46.5157 27.9321 45.6479 26.7039 44.5531 25.4758L41.7495 22.265C40.5212 20.8964 39.4799 19.3525 38.6254 17.633C37.7977 15.8785 37.3838 13.7204 37.3838 11.1588C37.3838 7.54448 38.1982 4.78987 39.827 2.89497C41.4558 0.964992 43.672 0 46.4756 0C48.2112 0 49.5997 0.385997 50.641 1.15799C51.7091 1.92998 52.5101 2.94761 53.0442 4.21087C53.6049 5.43904 53.9787 6.75494 54.1656 8.15856C54.3792 9.5271 54.4994 10.843 54.5261 12.1063L48.3581 13.1063C48.3314 11.8431 48.2646 10.7553 48.1578 9.84291C48.0777 8.89547 47.8908 8.17611 47.5971 7.68484C47.3034 7.15848 46.8494 6.8953 46.2353 6.8953C45.5678 6.8953 45.0738 7.26375 44.7534 8.00066C44.4597 8.73756 44.3128 9.47446 44.3128 10.2114C44.3128 11.7904 44.5932 13.0888 45.1539 14.1064C45.7413 15.089 46.5023 16.1241 47.4369 17.2119L50.1204 20.3175C51.5355 21.8965 52.7237 23.6862 53.685 25.6863C54.6729 27.6865 55.1669 30.1604 55.1669 33.108C55.1669 35.1081 54.8198 36.9329 54.1256 38.5821C53.4313 40.1963 52.4434 41.4771 51.1617 42.4245C49.9068 43.372 48.4115 43.8457 46.6759 43.8457Z" fill="#212121"/>
<path d="M17.96 43.2152L24.0879 0.580078H32.2586L38.3064 43.2152H31.6978L30.6164 34.2144H25.8502L24.7288 43.2152H17.96ZM26.4911 28.5824H29.9355L28.2133 11.9494L26.4911 28.5824Z" fill="#212121"/>
<path d="M0 43.2152V0.580078H7.16932V18.0026L12.6164 0.580078H19.6255L13.6177 19.8448L19.9059 43.2152H12.6164L7.93031 24.3715L7.16932 26.0559V43.2152H0Z" fill="#212121"/>
</svg>
