<svg width="30" height="30" viewBox="0 0 30 30" fill="none" xmlns="http://www.w3.org/2000/svg">
<path d="M25.5275 3.75404C25.2063 3.76904 24.9037 3.86316 24.6347 3.96854H24.6309C24.3582 4.07766 23.0619 4.62704 21.0932 5.45854C19.1244 6.29379 16.5692 7.37754 14.0325 8.45366C8.96679 10.6022 3.98704 12.7168 3.98704 12.7168L4.04679 12.6942C4.04679 12.6942 3.70304 12.807 3.34441 13.0554C3.16141 13.1758 2.95966 13.3414 2.78404 13.601C2.60841 13.8607 2.46654 14.2595 2.51879 14.6697C2.60466 15.3658 3.05304 15.7834 3.37429 16.0129C3.69929 16.2462 4.00941 16.3553 4.00941 16.3553H4.01691L8.68666 17.9394C8.89591 18.6167 10.11 22.6352 10.4014 23.5608C10.5733 24.1139 10.7414 24.46 10.9505 24.7234C11.0514 24.8589 11.1709 24.9718 11.3129 25.062C11.3689 25.0959 11.4287 25.1223 11.4885 25.1448C11.5072 25.156 11.5259 25.1598 11.5483 25.1637L11.4997 25.1524C11.5147 25.1562 11.5258 25.1674 11.537 25.1712C11.5744 25.1824 11.6005 25.1862 11.6492 25.1938C12.3888 25.4195 12.9828 24.9568 12.9828 24.9568L13.0164 24.9304L15.1295 22.9924C15.5022 22.6507 16.0644 22.6268 16.4643 22.9358L20.3945 25.9727L20.4992 26.0178C21.463 26.4429 22.438 26.2059 22.9535 25.7883C23.4728 25.3669 23.6745 24.8288 23.6745 24.8288L23.7082 24.7423L27.2795 6.31666C27.3804 5.86141 27.4065 5.43616 27.2945 5.02229C27.1824 4.60841 26.8948 4.22079 26.5474 4.01391C26.1962 3.80291 25.8488 3.73904 25.5275 3.75404ZM25.4304 5.72941C25.4267 5.78966 25.4379 5.78204 25.4118 5.89879V5.91004L21.874 24.1438C21.859 24.1702 21.8329 24.2265 21.7619 24.283C21.6872 24.3433 21.6274 24.3809 21.3174 24.2567L17.0993 20.9994C16.2693 20.3584 15.1027 20.4084 14.3295 21.118L12.2507 23.0263L12.9679 18.4133L18.8288 12.7914C19.4068 12.2369 18.7135 11.3107 18.0258 11.7189C14.529 13.7944 10.237 16.4492 10.237 16.4492L10.2333 16.4304L4.65204 14.5378V14.534C4.64829 14.534 4.64079 14.5303 4.63704 14.5303C4.64079 14.5303 4.66691 14.519 4.66691 14.519L4.69679 14.504L4.72666 14.4928C4.72666 14.4928 9.71016 12.3782 14.7759 10.2297C17.3125 9.15354 19.8678 8.06991 21.8328 7.23454C23.7978 6.40304 25.251 5.79341 25.3332 5.75954C25.4117 5.72941 25.3743 5.72941 25.4304 5.72941Z" fill="white" fill-opacity="0.7"/>
</svg>
