<svg width="411" height="310" viewBox="0 0 411 310" fill="none" xmlns="http://www.w3.org/2000/svg">
<path d="M362.562 97.3178V1.1875L373.692 1.1875V58.747L391.734 1.1875H400.84V97.3178H389.542V38.8089L371.331 97.3178H362.562Z" fill="#EB2311"/>
<path d="M337.387 97.3178V15.7851H326.848V1.1875L361.753 1.1875V15.7851H351.382V97.3178H337.387Z" fill="#EB2311"/>
<path d="M287.791 97.3178V1.1875L298.92 1.1875V58.747L316.963 1.1875H326.068V97.3178H314.771V38.8089L296.559 97.3178H287.791Z" fill="#EB2311"/>
<path d="M242.298 97.3178V1.1875L256.209 1.1875V40.7077H268.266V1.1875L282.177 1.1875V97.3178H268.266V54.7119H256.209V97.3178H242.298Z" fill="#EB2311"/>
<path d="M219.468 98.6226C214.691 98.6226 210.953 97.2775 208.255 94.5875C205.557 91.8974 203.646 88.0997 202.522 83.1943C201.454 78.2888 200.92 72.5922 200.92 66.1044V55.7793H193.416V97.3171H179.758V1.18679L193.416 1.18679V41.3004H200.92V32.1621C200.92 25.5952 201.454 19.9381 202.522 15.191C203.646 10.3647 205.557 6.64605 208.255 4.0351C210.953 1.34503 214.691 0 219.468 0C224.19 0 227.9 1.34503 230.598 4.0351C233.296 6.64605 235.207 10.3647 236.331 15.191C237.455 20.0173 238.017 25.6743 238.017 32.1621V66.1044C238.017 72.5922 237.455 78.2888 236.331 83.1943C235.207 88.0997 233.296 91.8974 230.598 94.5875C227.9 97.2775 224.19 98.6226 219.468 98.6226ZM219.468 84.4997C221.155 84.4997 222.391 83.9459 223.178 82.8382C223.965 81.6514 224.471 80.1086 224.696 78.2097C224.921 76.2317 225.033 74.1351 225.033 71.9197V26.4655C225.033 24.2502 224.921 22.193 224.696 20.2942C224.471 18.3953 223.965 16.892 223.178 15.7844C222.391 14.5976 221.155 14.0042 219.468 14.0042C217.782 14.0042 216.518 14.5976 215.674 15.7844C214.888 16.892 214.382 18.3953 214.157 20.2942C213.932 22.193 213.82 24.2502 213.82 26.4655V71.9197C213.82 74.1351 213.932 76.2317 214.157 78.2097C214.382 80.1086 214.888 81.6514 215.674 82.8382C216.518 83.9459 217.782 84.4997 219.468 84.4997Z" fill="#EB2311"/>
<path d="M139.038 97.3178V1.1875L152.949 1.1875V41.6572H156.153C160.594 41.6572 164.331 42.6066 167.367 44.5055C170.402 46.4043 172.706 49.4109 174.28 53.5251C175.854 57.5602 176.641 62.8612 176.641 69.4282C176.641 75.1248 176.107 79.7928 175.039 83.4323C174.027 86.9927 172.538 89.8015 170.571 91.8586C168.659 93.9157 166.383 95.3398 163.741 96.131C161.156 96.9222 158.289 97.3178 155.142 97.3178H139.038ZM152.949 84.3818H155.226C157.306 84.3818 158.964 83.8675 160.2 82.8389C161.493 81.8104 162.42 80.1884 162.982 77.9731C163.545 75.6786 163.798 72.7116 163.741 69.0721C163.685 64.8788 163.067 61.5558 161.886 59.103C160.762 56.5712 158.486 55.3053 155.057 55.3053H152.949V84.3818Z" fill="#EB2311"/>
<path d="M85.0527 97.3178L86.2331 1.1875L100.988 1.1875L109.419 61.8327L118.44 1.1875L132.689 1.1875L133.869 97.3178H123.752L122.656 32.1628L113.972 97.3178H105.287L96.1818 31.6881L95.2544 97.3178H85.0527Z" fill="#EB2311"/>
<path d="M60.8405 98.6226C55.838 98.6226 51.8754 97.3567 48.9526 94.8248C46.0298 92.293 43.922 88.6931 42.6293 84.025C41.3927 79.2778 40.7744 73.6208 40.7744 67.0539V31.2127C40.7744 24.6458 41.3927 19.0283 42.6293 14.3602C43.922 9.69215 46.0298 6.13177 48.9526 3.67906C51.8754 1.22636 55.838 0 60.8405 0C65.8992 0 69.8899 1.26591 72.8127 3.79774C75.7917 6.25045 77.8995 9.81083 79.1361 14.4789C80.4288 19.0678 81.0752 24.6458 81.0752 31.2127V67.0539C81.0752 73.6208 80.4288 79.2778 79.1361 84.025C77.8995 88.6931 75.7917 92.293 72.8127 94.8248C69.8899 97.3567 65.8992 98.6226 60.8405 98.6226ZM60.8405 84.4997C62.6392 84.4997 63.96 83.9459 64.8031 82.8382C65.6463 81.6514 66.2083 80.1086 66.4894 78.2097C66.7704 76.2317 66.9109 74.1351 66.9109 71.9197V26.4655C66.9109 24.2502 66.7704 22.193 66.4894 20.2942C66.2083 18.3953 65.6463 16.892 64.8031 15.7844C63.96 14.5976 62.6392 14.0042 60.8405 14.0042C59.1543 14.0042 57.8896 14.5976 57.0465 15.7844C56.2034 16.892 55.6413 18.3953 55.3603 20.2942C55.0792 22.193 54.9387 24.2502 54.9387 26.4655V71.9197C54.9387 74.1351 55.0511 76.2317 55.276 78.2097C55.557 80.1086 56.1191 81.6514 56.9622 82.8382C57.8053 83.9459 59.0981 84.4997 60.8405 84.4997Z" fill="#EB2311"/>
<path d="M0 97.3178L0 1.1875L13.9114 1.1875V40.233H15.8505L26.3894 1.1875L40.2165 1.1875L27.4855 46.4044L40.891 97.3178H26.6424L15.8505 54.3559H13.9114L13.9114 97.3178H0Z" fill="#EB2311"/>
<path d="M369.964 203.939V107.809H383.875V148.278H387.079C391.519 148.278 395.257 149.228 398.292 151.127C401.328 153.025 403.632 156.032 405.206 160.146C406.78 164.181 407.567 169.482 407.567 176.049C407.567 181.746 407.033 186.414 405.965 190.053C404.953 193.614 403.464 196.423 401.496 198.48C399.585 200.537 397.309 201.961 394.667 202.752C392.082 203.543 389.215 203.939 386.067 203.939H369.964ZM383.875 191.003H386.152C388.231 191.003 389.889 190.489 391.126 189.46C392.419 188.431 393.346 186.81 393.908 184.594C394.47 182.3 394.723 179.333 394.667 175.693C394.611 171.5 393.993 168.177 392.812 165.724C391.688 163.192 389.412 161.926 385.983 161.926H383.875V191.003Z" fill="#EB2311"/>
<path d="M344.786 203.939V122.406H334.247V107.809H369.152V122.406H358.782V203.939H344.786Z" fill="#EB2311"/>
<path d="M315.806 205.246C310.747 205.246 306.728 203.901 303.749 201.211C300.827 198.52 298.775 194.802 297.595 190.055C296.414 185.228 295.824 179.65 295.824 173.321V138.785C295.824 132.139 296.414 126.443 297.595 121.695C298.775 116.869 300.827 113.15 303.749 110.539C306.728 107.929 310.747 106.623 315.806 106.623C320.696 106.623 324.518 107.77 327.272 110.065C330.083 112.359 332.05 115.603 333.174 119.796C334.355 123.99 334.945 128.856 334.945 134.394V142.464H321.455V133.445C321.455 131.229 321.371 129.172 321.202 127.273C321.033 125.295 320.556 123.713 319.769 122.526C319.038 121.26 317.745 120.627 315.89 120.627C314.035 120.627 312.686 121.26 311.843 122.526C311 123.792 310.466 125.454 310.241 127.511C310.017 129.489 309.904 131.704 309.904 134.157V177.831C309.904 180.521 310.045 182.894 310.326 184.951C310.663 186.929 311.253 188.472 312.096 189.58C312.996 190.609 314.26 191.123 315.89 191.123C317.689 191.123 318.954 190.529 319.684 189.343C320.471 188.077 320.949 186.415 321.118 184.358C321.342 182.301 321.455 180.125 321.455 177.831V168.455H334.945V176.407C334.945 182.024 334.383 187.009 333.258 191.36C332.134 195.633 330.195 199.035 327.441 201.567C324.687 204.019 320.808 205.246 315.806 205.246Z" fill="#EB2311"/>
<path d="M272.371 205.246C267.368 205.246 263.406 203.98 260.483 201.448C257.56 198.916 255.452 195.316 254.16 190.648C252.923 185.901 252.305 180.244 252.305 173.677V137.836C252.305 131.269 252.923 125.651 254.16 120.983C255.452 116.315 257.56 112.755 260.483 110.302C263.406 107.849 267.368 106.623 272.371 106.623C277.429 106.623 281.42 107.889 284.343 110.421C287.322 112.873 289.43 116.434 290.666 121.102C291.959 125.691 292.606 131.269 292.606 137.836V173.677C292.606 180.244 291.959 185.901 290.666 190.648C289.43 195.316 287.322 198.916 284.343 201.448C281.42 203.98 277.429 205.246 272.371 205.246ZM272.371 191.123C274.169 191.123 275.49 190.569 276.333 189.461C277.177 188.274 277.739 186.732 278.02 184.833C278.301 182.855 278.441 180.758 278.441 178.543V133.089C278.441 130.873 278.301 128.816 278.02 126.917C277.739 125.018 277.177 123.515 276.333 122.407C275.49 121.221 274.169 120.627 272.371 120.627C270.685 120.627 269.42 121.221 268.577 122.407C267.734 123.515 267.172 125.018 266.891 126.917C266.61 128.816 266.469 130.873 266.469 133.089V178.543C266.469 180.758 266.581 182.855 266.806 184.833C267.087 186.732 267.649 188.274 268.492 189.461C269.336 190.569 270.628 191.123 272.371 191.123Z" fill="#EB2311"/>
<path d="M227.814 203.939V122.406H217.275V107.809H252.18V122.406H241.81V203.939H227.814Z" fill="#EB2311"/>
<path d="M158.954 203.939V107.809H172.865V148.278H176.069C180.566 148.278 184.332 149.228 187.367 151.127C190.402 153.025 192.707 156.032 194.281 160.146C195.854 164.181 196.641 169.482 196.641 176.049C196.641 181.746 196.107 186.414 195.039 190.053C193.971 193.614 192.482 196.423 190.571 198.48C188.66 200.537 186.383 201.961 183.742 202.752C181.156 203.543 178.29 203.939 175.142 203.939H158.954ZM172.865 191.003H175.226C177.306 191.003 178.964 190.489 180.201 189.46C181.493 188.431 182.421 186.81 182.983 184.594C183.545 182.3 183.798 179.333 183.742 175.693C183.685 171.5 183.067 168.177 181.887 165.724C180.706 163.192 178.43 161.926 175.058 161.926H172.865V191.003ZM202.627 203.939V107.809H216.539V203.939H202.627Z" fill="#EB2311"/>
<path d="M117.325 203.939V107.809H138.993C143.096 107.809 146.441 108.916 149.026 111.132C151.612 113.268 153.523 116.393 154.759 120.507C156.052 124.622 156.699 129.606 156.699 135.461C156.699 142.344 155.855 147.724 154.169 151.601C152.539 155.478 150.291 158.247 147.424 159.909C144.558 161.491 141.27 162.282 137.56 162.282H131.237V203.939H117.325ZM131.237 148.516H136.127C138.15 148.516 139.696 148.08 140.764 147.21C141.888 146.261 142.647 144.797 143.04 142.819C143.434 140.841 143.63 138.309 143.63 135.224C143.63 132.296 143.462 129.843 143.124 127.865C142.843 125.887 142.169 124.345 141.101 123.237C140.033 122.129 138.347 121.575 136.042 121.575H131.237V148.516Z" fill="#EB2311"/>
<path d="M75.5381 203.939V107.809H89.4495V146.854H91.3886L101.928 107.809H115.755L103.024 153.025L116.429 203.939H102.18L91.3886 160.977H89.4495V203.939H75.5381Z" fill="#EB2311"/>
<path d="M50.3612 203.939V122.406H39.8223V107.809H74.7272V122.406H64.3569V203.939H50.3612Z" fill="#EB2311"/>
<path d="M20.0661 205.246C15.0636 205.246 11.101 203.98 8.1782 201.448C5.25541 198.916 3.14762 195.316 1.85485 190.648C0.618283 185.901 0 180.244 0 173.677L0 137.836C0 131.269 0.618283 125.651 1.85485 120.983C3.14762 116.315 5.25541 112.755 8.1782 110.302C11.101 107.849 15.0636 106.623 20.0661 106.623C25.1248 106.623 29.1155 107.889 32.0383 110.421C35.0173 112.873 37.1251 116.434 38.3617 121.102C39.6544 125.691 40.3008 131.269 40.3008 137.836V173.677C40.3008 180.244 39.6544 185.901 38.3617 190.648C37.1251 195.316 35.0173 198.916 32.0383 201.448C29.1155 203.98 25.1248 205.246 20.0661 205.246ZM20.0661 191.123C21.8647 191.123 23.1856 190.569 24.0287 189.461C24.8718 188.274 25.4339 186.732 25.715 184.833C25.996 182.855 26.1365 180.758 26.1365 178.543V133.089C26.1365 130.873 25.996 128.816 25.715 126.917C25.4339 125.018 24.8718 123.515 24.0287 122.407C23.1856 121.221 21.8647 120.627 20.0661 120.627C18.3799 120.627 17.1152 121.221 16.2721 122.407C15.429 123.515 14.8669 125.018 14.5859 126.917C14.3048 128.816 14.1643 130.873 14.1643 133.089V178.543C14.1643 180.758 14.2767 182.855 14.5016 184.833C14.7826 186.732 15.3447 188.274 16.1878 189.461C17.0309 190.569 18.3237 191.123 20.0661 191.123Z" fill="#EB2311"/>
<path d="M287.874 309.246V213.246H316.836V226.757H301.412V252.239H313.308V265.868H301.412V295.972H317V309.246H287.874Z" fill="#EB2311"/>
<path d="M245.367 309.246V213.246H256.197V270.728L273.755 213.246H282.616V309.246H271.622V250.816L253.9 309.246H245.367Z" fill="#EB2311"/>
<path d="M220.867 309.246V227.824H210.611V213.246H244.578V227.824H234.487V309.246H220.867Z" fill="#EB2311"/>
<path d="M167.299 309.246L180.18 266.461C177.555 264.328 175.421 261.128 173.78 256.861C172.14 252.515 171.319 247.379 171.319 241.454C171.319 234.5 172.167 228.97 173.862 224.861C175.558 220.752 178.047 217.789 181.329 215.972C184.665 214.155 188.74 213.246 193.553 213.246H209.798V309.246H196.343V270.965H193.143C193.088 270.965 192.897 270.965 192.569 270.965C192.295 270.886 192.104 270.846 191.995 270.846L181.903 309.246H167.299ZM193.964 257.098H196.343V226.757H193.717C190.49 226.757 188.056 227.982 186.415 230.431C184.775 232.881 183.954 236.594 183.954 241.572C183.954 246.234 184.665 249.987 186.087 252.831C187.564 255.676 190.19 257.098 193.964 257.098Z" fill="#EB2311"/>
<path d="M127.293 309.246V213.246H140.83V252.713H152.563V213.246H166.101V309.246H152.563V266.698H140.83V309.246H127.293Z" fill="#EB2311"/>
<path d="M84.623 309.246V213.246H95.4531V270.728L113.011 213.246H121.872V309.246H110.878V250.816L93.1558 309.246H84.623Z" fill="#EB2311"/>
<path d="M44.1113 309.246V213.246H65.197C69.1899 213.246 72.4444 214.352 74.9605 216.565C77.4765 218.698 79.3362 221.819 80.5395 225.928C81.7976 230.036 82.4266 235.014 82.4266 240.861C82.4266 247.735 81.6061 253.108 79.9652 256.979C78.379 260.851 76.1911 263.616 73.4016 265.276C70.612 266.856 67.4123 267.646 63.8023 267.646H57.6488V309.246H44.1113ZM57.6488 253.898H62.4075C64.3766 253.898 65.8807 253.463 66.92 252.594C68.0139 251.646 68.7523 250.184 69.1352 248.209C69.5181 246.234 69.7095 243.705 69.7095 240.624C69.7095 237.7 69.5454 235.251 69.2173 233.276C68.9438 231.3 68.2874 229.76 67.2482 228.654C66.2089 227.547 64.568 226.994 62.3254 226.994H57.6488V253.898Z" fill="#EB2311"/>
<path d="M0 309.246L0 213.246H39.0537V309.246H25.7623V227.231H13.2914L13.2914 309.246H0Z" fill="#EB2311"/>
</svg>
